# xmcd
# Track frame offsets:
# 150
# 11843
# 32061
# 41187
# 53499
# 67109
# 80734
# 90707
# 102553
# 114231
# 126604
# 140730
# 153806
# 167461
# 177053
# 188778
# 201781
# 214345
# 223898
# 234349
# 245083
# 255681
# 268026
# 280448
# 292640
# 303142
# 315620
# 327252
#
# Disc length: 4749 seconds
# Revision: 0
# Processed by: cddbd v1.5.2PL0 Copyright (c) Steve Scherf et al.
# Submitted via: VisiTrax 2.11.3.279 - For more info visit www.synapsa.com
#
DISCID=a3128b1c
DTITLE=Various (1920's-1960's) Gospel and Jazz and Blues and Soul and R&B  Artist
DTITLE=s - From Sacred To Secular - A Soul Awakening:- Soul Chronology 5- "Si
DTITLE=nging From My Soul": CD5 of 8: *ReMastered Tracks
DYEAR=1959
DGENRE=Soul
TTITLE0=Soul Seekers The - Something's Got A Hold On Me*
TTITLE1=Isley Brothers The - Shout (Parts1 and 2)*
TTITLE2=Jackie Wilson - You Better Know It*
TTITLE3=Soul Stirrers The - Stand By Mew Father*
TTITLE4=Sugar Pie DeSanto - I Want To Know*
TTITLE5=Little Richard with The Upsetters - Every Night About This Time*
TTITLE6=Harold Burrage - Crying For My Baby*
TTITLE7=Sensational Wonders The - Walk Around Me (My Lord)*
TTITLE8=Little Willie John - I'm Shakin'*
TTITLE9=Donoman and The Lakettes - Here Comes The Fool*
TTITLE10=Miracles The - You Can Depend On Me*
TTITLE11=Mary Wells - Bye Bye Baby*
TTITLE12=Ray Charles - I Believe To My Soul*
TTITLE13=Meditation Singers The - My Soul Looks Back And Wonders*
TTITLE14=Drapers The - Baby, One More Time*
TTITLE15=Ike and Tina Turner - A Fool In Love*
TTITLE16=Kelly Brothers The - He's The Same Today*
TTITLE17=J.J Barnes and The Del Fi's - My Love Came Tumbling Down*
TTITLE18=Jessie Hill - Ooh Poo Pah Doo (Part 1)*
TTITLE19=Highway QC's The - Working On The Building*
TTITLE20=Sam Cooke - Tenderness*
TTITLE21=Mable John - Who Wouldn't Love A Man Like That*
TTITLE22=Rufus and Carla Thomas - Cause I Love You*
TTITLE23=Singin' Sammy Ward - Who's The Fool*
TTITLE24=Major Lance - I've Got A Girl*
TTITLE25=Swan Silveretone Singers The - Singin' In My Soul*
TTITLE26=Nina Simone - Work Song*
TTITLE27=Ray Charles - What'd I Say*
EXTD=Eight CD's in a book style holder. Discs and Tracks in chronological o
EXTD=rder with a 35 page central section with alternate pages of Track Info
EXTD=rmation and Performer Photo'sCompiled, ReMastered and Presented: History O
EXTD=f Soul Records: 2015
EXTT0=
EXTT1=
EXTT2=
EXTT3=
EXTT4=
EXTT5=
EXTT6=
EXTT7=
EXTT8=
EXTT9=
EXTT10=
EXTT11=
EXTT12=
EXTT13=
EXTT14=
EXTT15=
EXTT16=
EXTT17=
EXTT18=
EXTT19=
EXTT20=
EXTT21=
EXTT22=
EXTT23=
EXTT24=
EXTT25=
EXTT26=
EXTT27=
PLAYORDER=
